<svg width="122" height="56" viewBox="0 0 122 56" fill="none"
  xmlns="http://www.w3.org/2000/svg">
<style type="text/css">
	.st0{fill:#0078CD;}
	.st1{fill:#0056A4;}
	.st2{fill:#E51935;}
</style>
<path class="st0" d="M1,55.3c0,0.4-0.2,0.6-0.5,0.6c-0.3,0-0.5-0.2-0.5-0.6v-8.7C0,46.2,0.2,46,0.5,46C0.8,46,1,46.2,1,46.6V55.3z"
	/>
<path class="st0" d="M5.9,47.9v7.4c0,0.4-0.2,0.6-0.5,0.6s-0.5-0.2-0.5-0.6v-8.5c0-0.2,0-0.3,0.1-0.5c0.1-0.1,0.2-0.2,0.4-0.3
	c0.1,0,0.3,0,0.5,0c0.1,0.1,0.3,0.2,0.3,0.3l5.3,7.7v-7.4c0-0.4,0.2-0.6,0.5-0.6c0.1,0,0.2,0,0.2,0c0.1,0,0.1,0.1,0.2,0.1
	c0.1,0.1,0.1,0.1,0.1,0.2c0,0.1,0,0.2,0,0.2v8.5c0,0.2,0,0.3-0.1,0.5c-0.1,0.1-0.2,0.2-0.4,0.3c-0.1,0-0.3,0-0.5,0
	c-0.1-0.1-0.3-0.2-0.3-0.3L5.9,47.9z"/>
<path class="st0" d="M22.3,46.1c0.1,0,0.1,0,0.2,0c0.1,0,0.1,0.1,0.2,0.1c0.1,0,0.1,0.1,0.1,0.2c0,0.1,0,0.1,0,0.2
	c0,0.3-0.1,0.5-0.5,0.5h-2.7v8.2c0,0.4-0.2,0.6-0.5,0.6c-0.3,0-0.5-0.2-0.5-0.6v-8.2H16c-0.1,0-0.1,0-0.2,0c-0.1,0-0.1-0.1-0.2-0.1
	c-0.1,0-0.1-0.1-0.1-0.2c0-0.1,0-0.1,0-0.2c0-0.3,0.2-0.5,0.6-0.5H22.3z"/>
<path class="st0" d="M26.4,55.8c-0.2,0-0.3-0.1-0.4-0.2c-0.1-0.1-0.2-0.3-0.2-0.4v-8.5c0-0.2,0.1-0.3,0.2-0.4
	c0.1-0.1,0.3-0.2,0.4-0.2h5.2c0.4,0,0.6,0.2,0.6,0.5c0,0.3-0.2,0.5-0.6,0.5h-4.8v3.3h4.7c0.4,0,0.6,0.2,0.6,0.5s-0.2,0.5-0.6,0.5
	h-4.7v3.5h4.8c0.4,0,0.6,0.2,0.6,0.5c0,0.3-0.2,0.5-0.6,0.5H26.4z"/>
<path class="st0" d="M36.9,47.1v4.2h2.5c1.4,0,2.3-0.7,2.3-2.1c0-1.4-0.9-2.1-2.3-2.1H36.9z M39.2,52.2h-2.3v3.1
	c0,0.4-0.2,0.6-0.5,0.6c-0.3,0-0.5-0.2-0.5-0.6v-8.6c0-0.2,0.1-0.3,0.2-0.4c0.1-0.1,0.3-0.2,0.4-0.2h2.7c2.2,0,3.5,1.2,3.5,3.1
	c0,1.5-0.9,2.6-2.4,3l2,2.9c0.1,0.1,0.1,0.1,0.1,0.2c0,0.1,0,0.1,0,0.2c0,0.1,0,0.1-0.1,0.2c0,0.1-0.1,0.1-0.1,0.2
	c-0.1,0-0.1,0.1-0.2,0.1s-0.2,0-0.2,0c-0.1,0-0.1,0-0.2-0.1c-0.1,0-0.1-0.1-0.2-0.2L39.2,52.2z"/>
<path class="st0" d="M47.3,47.9v7.4c0,0.4-0.2,0.6-0.5,0.6c-0.3,0-0.5-0.2-0.5-0.6v-8.5c0-0.2,0-0.3,0.1-0.5
	c0.1-0.1,0.2-0.2,0.4-0.3s0.3,0,0.5,0c0.1,0.1,0.3,0.2,0.3,0.3l5.3,7.7v-7.4c0-0.4,0.2-0.6,0.5-0.6c0.1,0,0.2,0,0.2,0
	c0.1,0,0.1,0.1,0.2,0.1c0.1,0.1,0.1,0.1,0.1,0.2c0,0.1,0,0.2,0,0.2v8.5c0,0.2,0,0.3-0.1,0.4c-0.1,0.1-0.2,0.2-0.4,0.3
	c-0.1,0-0.3,0-0.5,0c-0.1-0.1-0.3-0.2-0.3-0.3L47.3,47.9z"/>
<path class="st0" d="M59.2,52.6h3.9l-2-5.1L59.2,52.6z M60.4,46.6c0.1-0.2,0.2-0.3,0.3-0.4c0.1-0.1,0.3-0.2,0.5-0.2
	c0.2,0,0.4,0,0.5,0.2c0.1,0.1,0.2,0.3,0.3,0.4l3.3,8.5c0,0.1,0.1,0.1,0.1,0.2c0,0.1,0,0.2,0,0.2c0,0.1-0.1,0.1-0.1,0.2
	c-0.1,0.1-0.1,0.1-0.2,0.1c-0.3,0.1-0.6,0-0.7-0.4l-0.7-1.9h-4.7l-0.7,1.9c-0.2,0.4-0.4,0.5-0.7,0.4c-0.1,0-0.1-0.1-0.2-0.1
	c-0.1-0.1-0.1-0.1-0.1-0.2c0-0.1,0-0.1,0-0.2s0-0.2,0.1-0.2L60.4,46.6z"/>
<path class="st0" d="M73.2,46.1c0.1,0,0.1,0,0.2,0c0.1,0,0.1,0.1,0.2,0.1c0.1,0,0.1,0.1,0.1,0.2c0,0.1,0,0.1,0,0.2
	c0,0.3-0.1,0.5-0.5,0.5h-2.7v8.2c0,0.4-0.2,0.6-0.5,0.6c-0.3,0-0.5-0.2-0.5-0.6v-8.2H67c-0.1,0-0.1,0-0.2,0c-0.1,0-0.1-0.1-0.2-0.1
	c-0.1,0-0.1-0.1-0.1-0.2c0-0.1,0-0.1,0-0.2c0-0.3,0.2-0.5,0.6-0.5H73.2z"/>
<path class="st0" d="M77.8,55.3c0,0.4-0.2,0.6-0.5,0.6c-0.3,0-0.5-0.2-0.5-0.6v-8.7c0-0.4,0.2-0.6,0.5-0.6c0.3,0,0.5,0.2,0.5,0.6
	V55.3z"/>
<path class="st0" d="M85.8,55c2.2,0,3.7-1.8,3.7-4.1s-1.5-4-3.7-4c-2.2,0-3.8,1.8-3.8,4S83.6,55,85.8,55z M85.8,45.9
	c2.8,0,4.8,2.3,4.8,5c0,2.8-2.1,5-4.8,5c-2.8,0-4.8-2.2-4.8-5C81,48.1,83.1,45.9,85.8,45.9z"/>
<path class="st0" d="M94.9,47.9v7.4c0,0.4-0.2,0.6-0.5,0.6c-0.3,0-0.5-0.2-0.5-0.6v-8.5c0-0.2,0-0.3,0.1-0.5
	c0.1-0.1,0.2-0.2,0.4-0.3s0.3,0,0.5,0c0.1,0.1,0.3,0.2,0.3,0.3l5.3,7.7v-7.4c0-0.4,0.2-0.6,0.5-0.6c0.1,0,0.2,0,0.2,0
	c0.1,0,0.1,0.1,0.2,0.1c0.1,0.1,0.1,0.1,0.1,0.2c0,0.1,0,0.2,0,0.2v8.5c0,0.2,0,0.3-0.1,0.5c-0.1,0.1-0.2,0.2-0.4,0.3
	c-0.2,0-0.3,0-0.5,0c-0.1-0.1-0.3-0.2-0.3-0.3L94.9,47.9z"/>
<path class="st0" d="M106.8,52.6h3.9l-2-5.1L106.8,52.6z M108,46.6c0.1-0.2,0.2-0.3,0.3-0.4c0.1-0.1,0.3-0.2,0.5-0.2
	c0.2,0,0.4,0,0.5,0.2c0.1,0.1,0.2,0.3,0.3,0.4l3.3,8.5c0,0.1,0.1,0.1,0.1,0.2c0,0.1,0,0.2,0,0.2s-0.1,0.1-0.1,0.2
	c-0.1,0.1-0.1,0.1-0.2,0.1c-0.3,0.1-0.5,0-0.7-0.4l-0.7-1.9h-4.7l-0.7,1.9c-0.1,0.4-0.4,0.5-0.7,0.4c-0.1,0-0.1-0.1-0.2-0.1
	c-0.1-0.1-0.1-0.1-0.1-0.2c0-0.1,0-0.1,0-0.2c0-0.1,0-0.2,0.1-0.2L108,46.6z"/>
<path class="st0" d="M117.2,54.8h4.2c0.4,0,0.6,0.2,0.6,0.5c0,0.3-0.2,0.5-0.6,0.5h-4.7c-0.2,0-0.3-0.1-0.4-0.2
	c-0.1-0.1-0.2-0.3-0.2-0.4v-8.6c0-0.4,0.2-0.6,0.5-0.6c0.3,0,0.5,0.2,0.5,0.6L117.2,54.8z"/>
<path class="st1" d="M109.4,37.8c0,0.1,0,0.2,0.1,0.3c0.1,0.1,0.2,0.1,0.3,0.1h1.9c0.1,0,0.2,0,0.3-0.1c0.1-0.1,0.1-0.2,0.1-0.3
	v-9.3h0l8.9,9.9h0.5c0.1,0,0.2,0,0.3-0.1c0.1-0.1,0.1-0.2,0.1-0.3V23.4c0-0.1,0-0.2-0.1-0.3c-0.1-0.1-0.2-0.1-0.3-0.1h-2
	c-0.1,0-0.2,0-0.3,0.1c-0.1,0.1-0.1,0.2-0.1,0.3v9h0l-8.9-9.6h-0.5c-0.1,0-0.2,0-0.3,0.1c-0.1,0.1-0.1,0.2-0.1,0.3V37.8z M93.6,30.6
	c0-1,0.3-1.9,0.8-2.8c0.5-0.8,1.3-1.5,2.2-1.8c0.9-0.4,1.9-0.5,2.8-0.3s1.8,0.7,2.5,1.4c0.7,0.7,1.2,1.6,1.3,2.6
	c0.2,1,0.1,2-0.3,2.9c-0.4,0.9-1,1.7-1.8,2.2c-0.8,0.5-1.8,0.8-2.7,0.8c-1.3,0-2.5-0.5-3.4-1.5C94.1,33.2,93.6,31.9,93.6,30.6z
	 M90.8,30.6c0,1.5,0.5,3,1.3,4.3c0.8,1.3,2,2.3,3.5,2.9c1.4,0.6,2.9,0.7,4.4,0.4c1.5-0.3,2.9-1.1,3.9-2.1c1.1-1.1,1.8-2.5,2.1-4
	c0.3-1.5,0.1-3.1-0.4-4.5c-0.6-1.4-1.6-2.6-2.8-3.5c-1.3-0.9-2.7-1.3-4.3-1.3c-1,0-2,0.2-3,0.6c-0.9,0.4-1.8,1-2.5,1.7
	s-1.3,1.6-1.7,2.5C91,28.6,90.8,29.6,90.8,30.6z M84.8,37.8c0,0.1,0,0.2,0.1,0.3c0.1,0.1,0.2,0.1,0.3,0.1h2c0.1,0,0.2,0,0.3-0.1
	c0.1-0.1,0.1-0.2,0.1-0.3V23.4c0-0.1,0-0.2-0.1-0.3c-0.1-0.1-0.2-0.1-0.3-0.1h-2c-0.1,0-0.2,0-0.3,0.1c-0.1,0.1-0.1,0.2-0.1,0.3
	L84.8,37.8z M75.7,37.8c0,0.1,0,0.2,0.1,0.3c0.1,0.1,0.2,0.1,0.3,0.1h2c0.1,0,0.2,0,0.3-0.1c0.1-0.1,0.1-0.2,0.1-0.3V25.6h3.3
	c0.1,0,0.2,0,0.3-0.1c0.1-0.1,0.1-0.2,0.1-0.3v-1.8c0-0.1,0-0.2-0.1-0.3C82,23.1,81.8,23,81.7,23h-9.3c-0.1,0-0.1,0-0.2,0
	c0,0-0.1,0.1-0.1,0.1c0,0-0.1,0.1-0.1,0.1c0,0,0,0.1,0,0.2v1.8c0,0.1,0,0.1,0,0.2c0,0.1,0,0.1,0.1,0.1c0,0,0.1,0.1,0.1,0.1
	c0,0,0.1,0,0.2,0h3.3L75.7,37.8z M62.9,33l2.1-4.8H65l2.1,4.8H62.9z M58.3,38.2h1.9c0.1,0,0.3,0,0.4-0.1c0.1-0.1,0.2-0.2,0.2-0.3
	l1-2.3h6.4l1,2.3c0,0.1,0.1,0.2,0.2,0.3c0.1,0.1,0.2,0.1,0.4,0.1h1.9c0.1,0,0.1,0,0.2,0c0.1,0,0.1-0.1,0.2-0.1
	c0-0.1,0.1-0.1,0.1-0.2c0-0.1,0-0.1,0-0.2L65.5,23c0-0.1-0.1-0.1-0.1-0.2c-0.1,0-0.1-0.1-0.2-0.1H65c-0.1,0-0.2,0-0.2,0.1
	c-0.1,0-0.1,0.1-0.1,0.2L58,37.6c0,0.1,0,0.1,0,0.2c0,0.1,0,0.1,0.1,0.2c0,0.1,0.1,0.1,0.2,0.1C58.2,38.2,58.3,38.2,58.3,38.2
	L58.3,38.2z M43.8,30.6c0,1,0.2,2,0.6,3c0.4,0.9,1,1.8,1.7,2.5c0.7,0.7,1.6,1.3,2.5,1.7c0.9,0.4,1.9,0.6,2.9,0.6
	c1.9,0,3.8-0.7,5.2-2.1c0,0,0.1-0.1,0.1-0.1c0,0,0-0.1,0-0.2c0-0.1,0-0.1,0-0.2s0-0.1-0.1-0.1l-1.3-1.4c-0.1-0.1-0.2-0.1-0.3-0.1
	c-0.1,0-0.2,0-0.3,0.1c-0.9,0.8-2.1,1.2-3.3,1.2c-2.7,0-4.8-2.3-4.8-5s2-5,4.8-5c1.2,0,2.4,0.5,3.3,1.3c0,0,0.1,0.1,0.1,0.1
	c0,0,0.1,0,0.1,0c0.1,0,0.1,0,0.1,0c0,0,0.1-0.1,0.1-0.1l1.3-1.4c0,0,0.1-0.1,0.1-0.1c0-0.1,0-0.1,0-0.2c0-0.1,0-0.1,0-0.2
	c0-0.1-0.1-0.1-0.1-0.1c-0.7-0.7-1.5-1.2-2.4-1.5c-0.9-0.3-1.8-0.5-2.8-0.5c-1,0-2,0.2-2.9,0.6c-0.9,0.4-1.8,1-2.5,1.7
	c-0.7,0.7-1.3,1.6-1.7,2.5C44,28.6,43.8,29.6,43.8,30.6z M28.9,32.4c0,1.6,0.7,3.1,1.8,4.2c1.1,1.1,2.6,1.7,4.2,1.7
	c1.6,0,3-0.6,4.2-1.7c1.1-1.1,1.8-2.6,1.8-4.2v-9c0-0.1,0-0.2-0.1-0.3c-0.1-0.1-0.2-0.1-0.3-0.1h-2c-0.1,0-0.2,0-0.3,0.1
	C38,23.2,38,23.3,38,23.4v8.9c0,1.8-1.3,3.3-3.1,3.3c-1.9,0-3.1-1.5-3.1-3.3v-8.9c0-0.1,0-0.2-0.1-0.3c-0.1-0.1-0.2-0.1-0.3-0.1h-2
	c-0.1,0-0.2,0-0.3,0.1c-0.1,0.1-0.1,0.2-0.1,0.3L28.9,32.4z M15.7,35.5v-9.9h2.4c2.8,0,4.8,2.1,4.8,4.9s-2,5-4.8,5H15.7z M13,37.8
	c0,0.1,0,0.2,0.1,0.3c0.1,0.1,0.2,0.1,0.3,0.1h5c1,0,2-0.2,2.9-0.5c0.9-0.4,1.8-0.9,2.5-1.6c0.7-0.7,1.3-1.5,1.7-2.5
	c0.4-0.9,0.6-1.9,0.6-2.9s-0.2-2-0.6-2.9c-0.4-0.9-0.9-1.8-1.7-2.5c-0.7-0.7-1.6-1.3-2.5-1.6c-0.9-0.4-1.9-0.6-2.9-0.5h-5.1
	c-0.1,0-0.2,0-0.3,0.1C13,23.2,13,23.3,13,23.4L13,37.8z M0,37.8c0,0.1,0,0.2,0.1,0.3c0.1,0.1,0.2,0.1,0.3,0.1h8.7
	c0.1,0,0.2,0,0.3-0.1c0.1-0.1,0.1-0.2,0.1-0.3V36c0-0.1,0-0.2-0.1-0.3c-0.1-0.1-0.2-0.1-0.3-0.1H2.8v-3.8H8c0.1,0,0.2,0,0.3-0.1
	c0.1-0.1,0.1-0.2,0.1-0.3v-1.8c0-0.1,0-0.2-0.1-0.3c-0.1-0.1-0.2-0.1-0.3-0.1H2.8v-3.6h6.3c0.1,0,0.1,0,0.2,0c0,0,0.1-0.1,0.1-0.1
	c0,0,0.1-0.1,0.1-0.1c0-0.1,0-0.1,0-0.2v-1.8c0-0.1,0-0.2-0.1-0.3C9.3,23.1,9.2,23,9.1,23H0.4c-0.1,0-0.2,0-0.3,0.1
	C0,23.2,0,23.3,0,23.4V37.8z"/>
<path class="st1" d="M73.6,15c0,0.1,0,0.2,0.1,0.3c0.1,0.1,0.2,0.1,0.3,0.1h8.7c0.1,0,0.2,0,0.3-0.1c0.1-0.1,0.1-0.2,0.1-0.3v-1.8
	c0-0.1,0-0.2-0.1-0.3c-0.1-0.1-0.2-0.1-0.3-0.1h-6.3V9h5.3c0.1,0,0.2,0,0.3-0.1c0.1-0.1,0.1-0.2,0.1-0.3V6.8c0-0.1,0-0.2-0.1-0.3
	c-0.1-0.1-0.2-0.1-0.3-0.1h-5.3V2.8h6.3c0.1,0,0.2,0,0.3-0.1c0.1-0.1,0.1-0.2,0.1-0.3V0.6c0-0.1,0-0.2-0.1-0.3
	c-0.1-0.1-0.2-0.1-0.3-0.1H74c-0.1,0-0.2,0-0.3,0.1c-0.1,0.1-0.1,0.2-0.1,0.3V15z M57.5,7.8c0,1,0.2,2,0.6,3c0.4,0.9,1,1.8,1.7,2.5
	c0.7,0.7,1.6,1.3,2.5,1.7c0.9,0.4,1.9,0.6,2.9,0.6c1.9,0,3.8-0.7,5.2-2.1c0.1-0.1,0.1-0.2,0.1-0.3c0-0.1,0-0.2-0.1-0.3l-1.3-1.4
	c-0.1-0.1-0.2-0.1-0.3-0.1s-0.2,0-0.3,0.1c-0.9,0.8-2.1,1.2-3.3,1.2c-2.7,0-4.8-2.3-4.8-5c0-2.7,2-5.1,4.8-5.1
	c1.2,0,2.4,0.5,3.3,1.3c0,0,0.1,0.1,0.1,0.1c0,0,0.1,0,0.1,0s0.1,0,0.1,0c0,0,0.1-0.1,0.1-0.1l1.3-1.4c0,0,0.1-0.1,0.1-0.1
	c0-0.1,0-0.1,0-0.2c0-0.1,0-0.1,0-0.2c0-0.1-0.1-0.1-0.1-0.1c-0.7-0.7-1.5-1.2-2.4-1.5C67.1,0.1,66.1,0,65.2,0c-1,0-2,0.2-3,0.6
	c-0.9,0.4-1.8,1-2.5,1.7C59,3,58.5,3.9,58.1,4.8C57.7,5.8,57.5,6.8,57.5,7.8L57.5,7.8z M41.7,15c0,0.1,0,0.2,0.1,0.3
	c0.1,0.1,0.2,0.1,0.3,0.1H44c0.1,0,0.2,0,0.3-0.1c0.1-0.1,0.1-0.2,0.1-0.3V5.7h0l8.9,9.9h0.5c0.1,0,0.2,0,0.3-0.1
	c0.1-0.1,0.1-0.2,0.1-0.3V0.6c0-0.1-0.1-0.2-0.1-0.3c-0.1-0.1-0.2-0.1-0.3-0.1h-2c-0.1,0-0.2,0-0.3,0.1c-0.1,0.1-0.1,0.2-0.1,0.3v9
	h0L42.6,0h-0.5c-0.1,0-0.2,0-0.3,0.1c-0.1,0.1-0.1,0.2-0.1,0.3V15z M30.1,10.2l2.1-4.8h0.1l2.1,4.8H30.1z M25.5,15.4h1.9
	c0.1,0,0.3,0,0.4-0.1c0.1-0.1,0.2-0.2,0.2-0.3l1-2.3h6.4l1,2.3c0,0.1,0.1,0.2,0.2,0.3c0.1,0.1,0.2,0.1,0.4,0.1h1.9
	c0.1,0,0.1,0,0.2,0c0.1,0,0.1-0.1,0.1-0.1c0-0.1,0.1-0.1,0.1-0.2c0-0.1,0-0.1,0-0.2L32.7,0.2c0-0.1-0.1-0.1-0.1-0.2
	C32.5,0,32.5,0,32.4,0h-0.2c-0.1,0-0.2,0-0.2,0.1c-0.1,0-0.1,0.1-0.1,0.2l-6.6,14.6c0,0.1,0,0.1,0,0.2c0,0.1,0,0.1,0.1,0.2
	c0,0.1,0.1,0.1,0.1,0.1C25.4,15.4,25.5,15.4,25.5,15.4L25.5,15.4z M15.3,7.1V2.8h3.5c0.6,0,1.1,0.2,1.5,0.6c0.4,0.4,0.6,0.9,0.6,1.5
	c0,0.6-0.2,1.1-0.6,1.5c-0.4,0.4-0.9,0.7-1.5,0.7L15.3,7.1z M12.5,15c0,0.1,0,0.2,0.1,0.3c0.1,0.1,0.2,0.1,0.3,0.1h2
	c0.1,0,0.2,0,0.3-0.1c0.1-0.1,0.1-0.2,0.1-0.3V9.5h2.4l2.8,5.7c0,0.1,0.1,0.1,0.1,0.1c0.1,0,0.1,0.1,0.2,0H23c0.1,0,0.1,0,0.2,0
	c0.1,0,0.1-0.1,0.2-0.1c0-0.1,0.1-0.1,0.1-0.2c0-0.1,0-0.1-0.1-0.2l-2.9-5.5c1.9-0.8,3.2-2.4,3.2-4.4c0-0.6-0.1-1.2-0.4-1.8
	c-0.2-0.6-0.6-1.1-1-1.5c-0.4-0.4-0.9-0.8-1.5-1c-0.6-0.2-1.2-0.4-1.8-0.3h-6.1c-0.1,0-0.2,0-0.3,0.1c-0.1,0.1-0.1,0.2-0.1,0.3V15z
	 M0,15c0,0.1,0,0.2,0.1,0.3c0.1,0.1,0.2,0.1,0.3,0.1h2c0.1,0,0.2,0,0.3-0.1c0.1-0.1,0.1-0.2,0.1-0.3V9.5H8c0.1,0,0.2,0,0.3-0.1
	c0.1-0.1,0.1-0.2,0.1-0.3V7.3c0-0.1,0-0.2-0.1-0.3C8.3,7,8.2,6.9,8,6.9H2.8V2.8h6.3c0.1,0,0.2,0,0.3-0.1c0.1-0.1,0.1-0.2,0.1-0.3
	V0.6c0-0.1,0-0.2-0.1-0.3C9.3,0.3,9.2,0.2,9.1,0.2H0.4c-0.1,0-0.2,0-0.3,0.1C0,0.4,0,0.5,0,0.6V15z"/>
<path class="st2" d="M9.1,17.7c0.1,0,0.2,0,0.3,0.1c0.1,0.1,0.1,0.2,0.1,0.3V20c0,0.1-0.1,0.2-0.1,0.3c-0.1,0.1-0.2,0.1-0.3,0.1H0.4
	c-0.1,0-0.2,0-0.3-0.1C0.1,20.2,0,20.1,0,20v-1.8c0-0.1,0.1-0.2,0.1-0.3c0.1-0.1,0.2-0.1,0.3-0.1H9.1z"/>
</svg>
