<svg width="111" height="101" viewBox="0 0 111 101" fill="none" xmlns="http://www.w3.org/2000/svg">
<g clip-path="url(#clip0)">
<path d="M0 0H111V100.161H0V0Z" fill="white"/>
<path d="M28.0111 24.6026C28.1548 24.4589 28.2984 24.3153 28.429 24.1586C28.6902 23.8582 28.9514 23.584 29.2517 23.3228C29.3431 23.2445 29.4345 23.1661 29.526 23.1139C29.5521 23.0878 29.5521 23.0355 29.5782 23.0094C29.4607 23.0617 29.3823 23.1531 29.2517 23.2053C29.2256 23.2053 29.1995 23.1792 29.2256 23.1531C29.317 23.0878 29.4084 23.0225 29.4868 22.9572H29.4737C29.4476 22.9572 29.4476 22.9311 29.4476 22.9049C29.1211 22.8527 28.8861 23.0747 28.6641 23.2706C28.6118 23.2967 28.5596 23.2445 28.5465 23.2445C28.1809 23.362 27.9067 23.6885 27.541 23.8321V23.7799C27.3974 23.8321 27.2537 23.9235 27.097 23.9497C26.875 24.0019 26.6791 23.9758 26.4832 23.9758C26.1829 24.0019 25.8825 24.0672 25.5822 24.1325C25.5691 24.1325 25.5691 24.1325 25.5561 24.1455C25.3994 24.1847 25.2427 24.25 25.099 24.3284L25.0468 24.3806C24.9945 24.4328 24.9423 24.4981 24.877 24.5242C24.7203 24.6026 24.6028 24.7332 24.4722 24.8507C24.4591 24.8638 24.4461 24.8638 24.433 24.8638C24.3024 24.9944 24.1718 25.1249 24.0412 25.2425C24.0282 25.2555 23.989 25.2555 23.9629 25.2555C23.9629 25.2425 23.976 25.2425 23.976 25.2294C24.0021 25.1902 24.0151 25.1641 24.0412 25.1249L24.1196 25.0074C24.1588 24.9552 24.1849 24.9029 24.2241 24.8638C24.2371 24.8507 24.2371 24.8377 24.2241 24.8377C24.211 24.8246 24.198 24.8246 24.1849 24.8246C24.3024 24.7071 24.4591 24.6026 24.6028 24.5112C24.5897 24.5112 24.5636 24.4981 24.5767 24.4851C24.5897 24.4589 24.6028 24.4459 24.6158 24.4198C24.6158 24.4067 24.6158 24.4067 24.6289 24.3937C24.6289 24.3806 24.6158 24.3806 24.6158 24.3675L24.4983 24.4459C24.433 24.4981 24.3938 24.6026 24.3024 24.6026H24.2632C24.2502 24.6026 24.2371 24.6026 24.2371 24.5895V24.5765C24.2371 24.5634 24.2502 24.5634 24.2502 24.5504C24.2502 24.5373 24.2632 24.5373 24.2632 24.5242C24.2632 24.5242 24.2632 24.5112 24.2763 24.5112C24.2763 24.4981 24.2894 24.4851 24.2894 24.4851C24.2894 24.472 24.3024 24.472 24.3024 24.4589C24.3155 24.4459 24.3285 24.4198 24.3285 24.4067C24.3285 24.3937 24.3416 24.3937 24.3416 24.3806C24.3547 24.3675 24.3547 24.3545 24.3677 24.3414C24.3808 24.3153 24.3677 24.3022 24.3547 24.3022C24.3938 24.2369 24.4591 24.1978 24.5244 24.1586H24.5114C24.6028 24.1064 24.7072 24.0541 24.7987 24.0019L24.8378 23.9627C24.6942 24.0149 24.5767 24.0802 24.4461 24.1586C24.4461 24.1586 24.42 24.1717 24.4069 24.1847C24.4069 24.1847 24.3808 24.1978 24.3416 24.1586V24.1455C24.3677 24.0933 24.4461 24.0672 24.4852 24.028C24.5114 24.028 24.5375 24.028 24.5375 24.0541C25.3341 23.4404 26.418 23.584 27.3321 23.2706C27.4104 23.2184 27.4757 23.1661 27.5541 23.1269C27.6716 23.0747 27.7761 22.9572 27.9197 22.8788C28.1156 22.7352 28.2592 22.5524 28.3376 22.3173C28.3376 22.2912 28.3115 22.2651 28.3115 22.2651C27.985 22.6046 27.6194 22.8788 27.2276 23.0747C26.7052 23.3489 26.1437 23.2967 25.5952 23.3751C25.6214 23.3228 25.6736 23.3228 25.7128 23.3228C25.7128 23.2445 25.765 23.2184 25.8172 23.1792H25.8956C25.9217 23.1792 25.9217 23.1269 25.9478 23.1269C26.0001 23.1269 26.0784 23.1008 26.0523 23.1008C25.974 22.9964 25.8303 23.1792 25.7128 23.1008C25.765 23.0486 25.7389 22.9833 25.7911 22.9572H25.8956C25.8956 22.9049 25.9478 22.8527 25.9478 22.8527C26.3135 22.6307 26.6661 22.4609 27.0056 22.2651C26.9272 22.2651 26.8881 22.3434 26.8097 22.2912C26.862 22.2912 26.8097 22.2128 26.862 22.2128C27.1362 22.1345 27.3582 21.9908 27.6324 21.8864C27.528 21.8864 27.4627 21.9647 27.3582 21.8864C27.4104 21.8602 27.4365 21.808 27.5018 21.808V21.7297C27.5018 21.7035 27.528 21.7035 27.5541 21.7035C27.528 21.7035 27.5018 21.6774 27.5018 21.6774C27.528 21.6252 27.6063 21.6513 27.6455 21.5991C27.6194 21.5991 27.5671 21.5991 27.5671 21.5729C27.6455 21.4685 27.763 21.4554 27.8936 21.4293C27.8675 21.3771 27.7891 21.4293 27.7891 21.3771C27.7891 21.3509 27.8152 21.3509 27.8414 21.3509H27.7891C27.7369 21.3248 27.763 21.2726 27.763 21.2465C27.9067 21.0767 27.9067 20.8547 27.985 20.6588C27.9589 20.6588 27.9328 20.6588 27.9328 20.6327C27.6847 20.9069 27.2929 20.9984 26.9272 21.1028H26.7575C26.64 21.1551 26.4571 21.1551 26.3396 21.0767C26.2351 21.0245 26.196 20.9592 26.0915 20.8808C25.8956 20.7633 25.6997 20.6588 25.4777 20.5805C24.864 20.3846 24.2241 20.2801 23.5842 20.3062C23.8584 20.1626 24.1588 20.1495 24.4461 20.0581C24.864 19.9406 25.2557 19.7839 25.6997 19.81C25.6214 19.7839 25.53 19.81 25.4516 19.81C25.1121 19.7839 24.7595 19.8884 24.3938 19.9537C24.1457 20.0059 23.9237 20.0973 23.6756 20.1495C23.532 20.2018 23.4536 20.3454 23.2838 20.3193V20.2409C23.532 19.9406 23.8323 19.6533 24.2241 19.6272C24.6681 19.5488 25.086 19.6272 25.53 19.6794C25.8564 19.7055 26.1437 19.7839 26.4702 19.8492C26.5877 19.8492 26.6138 20.0451 26.7183 20.0712C26.862 20.1234 27.0187 20.0712 27.1623 20.1757C27.1623 20.1234 27.1362 20.0712 27.1623 20.032C27.2668 19.9275 27.3843 20.0581 27.4888 20.0059C27.6847 19.8884 27.319 19.6664 27.2145 19.4835C27.2145 19.4574 27.2407 19.4313 27.2407 19.4313C27.4365 19.6011 27.5802 19.7969 27.8283 19.9275C27.9458 19.9798 28.2462 20.0451 28.194 19.9014C28.0764 19.6272 27.8283 19.4052 27.6194 19.1571V19.0526C27.5671 19.0526 27.5671 19.0265 27.541 19.0004V18.8959C27.4365 18.8437 27.4627 18.7522 27.4235 18.6739C27.3451 18.5564 27.3974 18.3735 27.3451 18.2299C27.2929 18.0862 27.2668 17.9557 27.2407 17.812C27.1623 17.3941 27.0709 17.0285 27.0187 16.6237C26.9664 16.1535 27.2929 15.7879 27.5149 15.37C27.6847 15.0697 27.8805 14.7824 28.207 14.5865C28.2854 14.2861 28.4812 14.038 28.6771 13.8029C28.873 13.5679 29.1995 13.4112 29.4345 13.3067C29.7741 13.15 30.0875 13.0586 30.0875 13.0586H13.0588V26.1174H25.1643C25.6344 25.7779 26.1045 25.6212 26.7575 25.2947C27.0709 25.1641 27.7761 24.8377 28.0111 24.6026ZM24.2241 22.8266C24.1718 22.8266 24.0804 22.8527 24.1065 22.8005C24.1327 22.6829 24.3024 22.6829 24.4069 22.6307C24.4591 22.6046 24.5244 22.5524 24.5767 22.5785C24.6289 22.6568 24.6942 22.6307 24.7464 22.6829C24.5897 22.8266 24.3938 22.7613 24.2241 22.8266ZM20.437 22.2912C20.437 22.2912 20.4109 22.2651 20.4109 22.2389C20.7374 21.8211 20.9724 21.4293 21.2075 20.9853C21.534 20.8155 21.7951 20.5674 22.0432 20.2932C22.4611 19.8492 22.9051 19.4574 23.4275 19.2093C23.6234 19.1309 23.8715 19.1571 24.0674 19.2354C23.989 19.3399 23.8715 19.3138 23.767 19.3791C23.7409 19.3791 23.7148 19.3791 23.6887 19.3529C23.7148 19.3268 23.7148 19.3007 23.7148 19.2746C23.4667 19.5488 23.1271 19.6664 22.9312 19.9928C22.7876 20.2409 22.6831 20.5544 22.3697 20.6327C22.2652 20.6588 22.3958 20.5544 22.3436 20.5805C21.5731 21.0506 21.0377 21.6252 20.437 22.2912ZM22.4872 20.6588C22.4611 20.7111 22.435 20.7111 22.4089 20.7633C22.3828 20.8155 22.3567 20.8417 22.3044 20.8678C22.2783 20.8678 22.2522 20.8678 22.2522 20.8417C22.2783 20.7372 22.3567 20.6458 22.4481 20.6197C22.4872 20.6066 22.4872 20.6327 22.4872 20.6588ZM23.6364 24.3545C23.6234 24.3806 23.5972 24.4067 23.5711 24.4328C23.5972 24.4328 23.6234 24.4589 23.5972 24.472C23.545 24.5242 23.4797 24.5765 23.4144 24.6026H23.3752C23.3491 24.6287 23.31 24.6548 23.2838 24.694C23.2577 24.7201 23.1141 24.7071 23.1532 24.6679C23.2185 24.6157 23.2708 24.5504 23.3361 24.4981C23.3752 24.472 23.4144 24.4328 23.4405 24.3937C23.4536 24.3675 23.4667 24.3545 23.4928 24.3414C23.532 24.3153 23.6625 24.3022 23.6364 24.3545ZM23.1924 24.1586C23.088 24.2239 22.9965 24.2892 22.9051 24.3545C22.8007 24.4198 22.6831 24.4589 22.5787 24.5112C22.5656 24.4981 22.5525 24.4981 22.5395 24.4981C22.4481 24.5504 22.3697 24.6157 22.2914 24.694L22.2522 24.7332L22.213 24.7724L22.1608 24.8246C22.1477 24.8377 22.1477 24.8507 22.1216 24.8638C22.1085 24.8768 22.0694 24.8768 22.0694 24.8507C22.0563 24.8638 22.0432 24.8638 22.0302 24.8768C22.0171 24.8899 22.0041 24.8899 21.991 24.9029H21.9649C21.9388 24.9291 21.8996 24.9552 21.8735 24.9813C21.8212 25.0335 21.769 25.0727 21.7298 25.138V25.1511L21.7168 25.1641C21.7168 25.1641 21.7168 25.1772 21.7037 25.1772C21.7037 25.1902 21.6907 25.1902 21.6907 25.2033C21.6907 25.2033 21.6776 25.2164 21.6645 25.2164L21.6515 25.2033C21.6515 25.2033 21.6515 25.1902 21.6384 25.1902C21.6254 25.1772 21.6254 25.1641 21.6123 25.1511V25.138C21.6384 25.1119 21.6645 25.0858 21.6907 25.0466C21.7037 25.0335 21.7037 25.0205 21.7168 25.0205C21.7298 25.0074 21.7429 24.9813 21.756 24.9682C21.756 24.9552 21.769 24.9552 21.769 24.9421C21.7951 24.9029 21.8212 24.8768 21.8474 24.8377L21.8604 24.8246C21.8735 24.8115 21.8865 24.7854 21.8996 24.7724C21.9127 24.7593 21.9127 24.7462 21.9257 24.7201V24.7071C21.9388 24.6809 21.9388 24.6679 21.9518 24.6548V24.6418C21.9518 24.6287 21.9518 24.6287 21.9649 24.6157C21.9649 24.6026 21.9649 24.5895 21.978 24.5765V24.5634C22.0041 24.5112 22.0432 24.472 22.0824 24.4328H22.0694C22.0302 24.4589 22.0041 24.4851 21.978 24.5112C21.9518 24.5373 21.8996 24.4981 21.9388 24.472C21.9649 24.4589 21.978 24.4328 21.991 24.4198C22.0302 24.3806 22.0694 24.3284 22.1216 24.2892C22.1477 24.2631 22.1738 24.25 22.2 24.2369L22.213 24.2239C22.2261 24.1978 22.2522 24.1847 22.2652 24.1586C22.5003 23.9366 22.9051 23.9366 23.2055 23.7929C23.323 23.7407 23.4797 23.8191 23.5972 23.7929C23.6756 23.7929 23.7409 23.7929 23.8192 23.8452C23.5972 23.8844 23.4014 24.028 23.1924 24.1586ZM23.7017 22.4348C23.6756 22.4087 23.7801 22.4348 23.8062 22.3826H23.6103C23.5842 22.3826 23.5842 22.3565 23.5842 22.3304C23.4667 22.3565 23.31 22.4087 23.1924 22.4348C23.0227 22.4871 22.866 22.6046 22.6701 22.6568C22.3958 22.7613 22.1738 22.9833 21.8865 23.0747C21.8604 23.0747 21.8604 23.0486 21.8604 23.0225C21.8865 22.9441 21.978 22.918 22.0302 22.8527C22.0302 22.8266 22.0302 22.8005 22.0041 22.8005C22.2 22.5262 22.4742 22.3826 22.7223 22.1606V22.0822C22.8007 21.9778 22.9182 21.9386 22.9704 21.808C22.9965 21.7297 23.101 21.6382 23.2185 21.586C23.1924 21.5599 23.1402 21.5599 23.1402 21.5077C23.0357 21.5077 22.9443 21.5599 22.8398 21.4815C22.8921 21.4424 22.9443 21.4162 22.9965 21.3901C22.9704 21.3901 22.9574 21.3771 22.9443 21.3509C22.9182 21.2987 22.9965 21.2465 23.0618 21.2334C23.1663 21.2073 23.2838 21.2073 23.3622 21.1289C23.1924 21.1028 22.9965 21.1812 22.8137 21.0767C22.9312 20.7502 23.1402 20.4891 23.4275 20.3324C23.4536 20.3324 23.5058 20.3324 23.5058 20.3585C23.5058 20.476 23.4275 20.5805 23.31 20.6066C23.5058 20.6588 23.7017 20.6588 23.8976 20.7502C23.8715 20.8025 23.8192 20.7764 23.7931 20.7764C23.9107 20.8547 24.0674 20.8025 24.1849 20.8939C24.1065 20.9722 24.0412 20.8939 23.9629 20.8939C24.7334 21.1159 25.543 21.2857 26.1829 21.7819C25.6344 22.0561 25.0729 22.1737 24.4852 22.3042C24.4069 22.3042 24.3677 22.3042 24.2894 22.2781C24.2894 22.3042 24.2894 22.3565 24.2632 22.3565C24.1588 22.3565 24.0935 22.3565 24.0151 22.4087C23.9237 22.4871 23.7801 22.5132 23.7017 22.4348Z" fill="#000091"/>
<path d="M49.0359 13.0583H35.0107C35.0107 13.0583 35.0368 13.0583 35.1413 13.1236C35.2588 13.1889 35.4025 13.2673 35.4939 13.3065C35.6767 13.3979 35.8465 13.5154 35.964 13.6982C36.0162 13.7766 36.0815 13.9202 36.0424 14.0247C35.9901 14.1422 35.964 14.3512 35.8465 14.3903C35.7028 14.4687 35.5069 14.4687 35.3241 14.4426C35.2196 14.4426 35.1282 14.4165 35.0238 14.3903C35.3894 14.534 35.742 14.7168 35.9901 15.0563C36.0162 15.1086 36.1076 15.1347 36.2121 15.1347C36.2382 15.1347 36.2382 15.1869 36.2382 15.2131C36.186 15.2653 36.1338 15.2914 36.1599 15.3567H36.2382C36.3558 15.3045 36.3427 15.0563 36.5125 15.1347C36.63 15.2131 36.6822 15.3828 36.6169 15.5003C36.5125 15.6048 36.4211 15.6701 36.3166 15.7485C36.2905 15.8007 36.2905 15.866 36.3166 15.9182C36.3949 16.0227 36.4211 16.1141 36.4341 16.2186C36.5125 16.3883 36.5386 16.5842 36.6039 16.7671C36.7084 17.1327 36.7998 17.5114 36.7736 17.8771C36.7736 18.0729 36.6692 18.2427 36.7475 18.4386C36.7998 18.6345 36.9173 18.7781 37.0218 18.9609C37.1262 19.1046 37.2176 19.2091 37.296 19.3527C37.4396 19.6008 37.7139 19.8489 37.5964 20.1362C37.518 20.306 37.2568 20.2799 37.074 20.3844C36.9304 20.5019 37.0479 20.7108 37.1262 20.8284C37.2438 21.0504 36.9826 21.194 36.7998 21.2593C36.852 21.3376 36.9434 21.3115 36.9695 21.3638C36.9956 21.4813 37.1132 21.5596 37.0479 21.6902C36.9434 21.8339 36.6561 21.9122 36.7998 22.1342C36.9042 22.304 36.8389 22.4999 36.7736 22.6827C36.6953 22.8786 36.5255 23.0092 36.3296 23.0484C36.186 23.1006 36.0032 23.1006 35.8595 23.0745C35.8073 23.0484 35.7551 23.0222 35.7159 23.0222C35.298 22.97 34.8801 22.8525 34.4622 22.8525C34.3447 22.8786 34.2141 22.9047 34.1227 22.9439C34.0182 23.0222 33.9138 23.1136 33.8224 23.2051C33.8093 23.2312 33.7832 23.2442 33.7701 23.2704C33.7571 23.2834 33.744 23.2965 33.744 23.3095L33.7179 23.3356C33.6395 23.4271 33.5873 23.5185 33.522 23.6229C33.522 23.636 33.5089 23.636 33.5089 23.636C33.5089 23.6491 33.4959 23.6621 33.4828 23.6752C33.4045 23.8188 33.3392 23.9755 33.3 24.1322C33.1302 24.6938 33.2086 25.1769 33.3261 25.2945C33.3522 25.3206 34.1358 25.5687 34.6842 25.8168C34.9454 25.9344 35.1152 26.0127 35.2719 26.1172H49.0489V13.0583H49.0359Z" fill="#E1000F"/>
<path d="M35.8458 17.838C35.9503 17.8641 36.0939 17.8641 36.0939 17.9163C36.0417 18.1122 35.7544 18.1645 35.5977 18.3603H35.5193C35.441 18.4126 35.4671 18.5301 35.4018 18.5301C35.3235 18.504 35.2582 18.5301 35.1798 18.5562C35.2843 18.6607 35.4018 18.726 35.5455 18.6999C35.5716 18.6999 35.6238 18.7521 35.6238 18.8043C35.6238 18.8043 35.6499 18.8043 35.676 18.7782C35.7022 18.7782 35.7283 18.7782 35.7283 18.8043V18.9088C35.6499 19.0133 35.5324 18.961 35.4279 18.9872C35.6238 19.0394 35.8197 19.0394 36.0025 18.9872C36.1462 18.9349 36.0025 18.6868 36.107 18.5693C36.0548 18.5693 36.107 18.4909 36.0548 18.4909C36.107 18.4387 36.1592 18.3734 36.1984 18.3473C36.2506 18.3473 36.3159 18.3212 36.342 18.2689C36.342 18.2167 36.2376 18.1906 36.2637 18.1514C36.4073 18.0469 36.5379 17.9033 36.4857 17.7596C36.4596 17.6813 36.2637 17.6813 36.1462 17.629C36.0286 17.5768 35.8719 17.629 35.7283 17.6552C35.6108 17.6552 35.4802 17.7335 35.3626 17.7596C35.1929 17.8119 35.0362 17.9033 34.8925 18.0077C35.0623 17.9294 35.232 17.9033 35.4279 17.8641C35.5716 17.838 35.6891 17.8119 35.8458 17.838Z" fill="#808080"/>
<path d="M13.0588 42.4411V32.647H16.0362C17.1157 32.647 17.9602 32.9082 18.5696 33.4305C19.1877 33.9529 19.5011 34.6668 19.5098 35.5722C19.5098 36.1555 19.3749 36.6604 19.105 37.087C18.8351 37.5223 18.4521 37.8618 17.9558 38.1056L21.0116 42.4411H18.648L16.0492 38.4843H15.0437V42.4411H13.0588ZM15.0437 36.7997H16.1537C16.5716 36.7997 16.8937 36.6909 17.1201 36.4733C17.3551 36.2556 17.4727 35.9465 17.4727 35.5461C17.4727 35.1717 17.3551 34.8757 17.1201 34.6581C16.885 34.4404 16.5629 34.336 16.1537 34.3447H15.0437V36.7997ZM22.3958 42.4411V32.647H28.0764V34.3447H24.3677V36.6038H27.5149V38.3015H24.3677V40.7435H28.0764V42.4411H22.3958ZM24.3155 31.8113L25.8825 29.9177H27.9197L26.1176 31.8113H24.3155ZM30.4923 42.4411V32.647H33.7178C34.7887 32.647 35.6288 32.9082 36.2382 33.4305C36.8563 33.9529 37.1654 34.6668 37.1654 35.5722C37.1654 36.4776 36.8563 37.1871 36.2382 37.7008C35.6201 38.2231 34.78 38.4843 33.7178 38.4843H32.4772V42.4411H30.4923ZM32.4772 36.7997H33.7962C34.2228 36.7997 34.5536 36.6865 34.7887 36.4602C35.0237 36.2425 35.1412 35.9378 35.1412 35.5461C35.1412 35.1717 35.0194 34.8757 34.7756 34.6581C34.5405 34.4404 34.2141 34.336 33.7962 34.3447H32.4772V36.7997ZM38.7585 38.6149V32.647H40.7435V38.7716C40.7435 39.4245 40.9176 39.9382 41.2658 40.3125C41.6141 40.6782 42.0972 40.861 42.7154 40.861C43.3248 40.861 43.8036 40.6782 44.1518 40.3125C44.5001 39.9469 44.6742 39.4333 44.6742 38.7716V32.647H46.6591V38.6149C46.6591 39.9034 46.3065 40.9089 45.6014 41.6315C44.8962 42.3541 43.9298 42.7154 42.7023 42.7154C41.4835 42.7154 40.5215 42.3541 39.8163 41.6315C39.1111 40.9002 38.7585 39.8947 38.7585 38.6149ZM49.2448 42.4411V32.647H52.0132C53.0318 32.647 53.8284 32.8821 54.403 33.3522C54.9863 33.8223 55.278 34.4753 55.278 35.311C55.278 36.1207 54.9341 36.7649 54.2463 37.2437C54.7599 37.4788 55.1561 37.7922 55.4347 38.184C55.7132 38.5844 55.8525 39.0415 55.8525 39.5551C55.8525 40.4518 55.5261 41.157 54.8731 41.6707C54.2289 42.1843 53.3452 42.4411 52.2222 42.4411H49.2448ZM51.2167 40.7435H52.3397C52.8011 40.7435 53.1624 40.6303 53.4236 40.404C53.6848 40.1689 53.8154 39.8511 53.8154 39.4507C53.8154 39.0502 53.6848 38.7368 53.4236 38.5104C53.1624 38.2928 52.8011 38.184 52.3397 38.184H51.2167V40.7435ZM51.2167 36.4863H52.0524C52.4268 36.4863 52.7184 36.3905 52.9274 36.199C53.1363 36.0162 53.2408 35.7507 53.2408 35.4024C53.2408 35.0716 53.1363 34.8148 52.9274 34.632C52.7271 34.4404 52.4355 34.3447 52.0524 34.3447H51.2167V36.4863ZM58.0072 42.4411V32.647H59.9791V40.639H63.6878V42.4411H58.0072ZM65.5683 42.4411V32.647H67.5402V42.4411H65.5683ZM69.9561 39.5421C69.7036 38.9065 69.5774 38.2405 69.5774 37.5441C69.5774 36.8476 69.7036 36.186 69.9561 35.5591C70.2085 34.9236 70.5568 34.3708 71.0008 33.9007C71.4535 33.4305 72.0019 33.0562 72.6462 32.7776C73.2991 32.499 74 32.3597 74.7487 32.3597C75.4974 32.3597 76.1982 32.499 76.8511 32.7776C77.5041 33.0562 78.0525 33.4305 78.4965 33.9007C78.9405 34.3708 79.2888 34.9236 79.5412 35.5591C79.7937 36.186 79.92 36.8476 79.92 37.5441C79.92 38.3624 79.7502 39.1285 79.4107 39.8424C79.0711 40.5563 78.601 41.1527 78.0003 41.6315L78.588 42.193C79.2757 42.8198 79.9548 43.1289 80.6251 43.1202C80.9037 43.1202 81.1388 43.0854 81.3303 43.0157V44.7003C81.0256 44.8222 80.6817 44.8788 80.2987 44.8701C79.2452 44.8701 78.231 44.4435 77.256 43.5903L76.0937 42.5456C75.6671 42.6588 75.2188 42.7154 74.7487 42.7154C74 42.7154 73.2991 42.5761 72.6462 42.2975C72.0019 42.0189 71.4535 41.6489 71.0008 41.1875C70.5568 40.7174 70.2085 40.1689 69.9561 39.5421ZM72.5025 35.1804C71.9105 35.816 71.6102 36.6038 71.6015 37.5441C71.6015 38.4843 71.9018 39.2722 72.5025 39.9077C73.0945 40.5433 73.8476 40.861 74.7617 40.861C75.3624 40.861 75.8978 40.7174 76.368 40.4301C76.8468 40.1428 77.2211 39.7423 77.491 39.2287C77.7609 38.7237 77.8958 38.1622 77.8958 37.5441C77.8958 36.6038 77.5955 35.816 76.9948 35.1804C76.4028 34.5449 75.6541 34.2271 74.7487 34.2271C73.8345 34.2271 73.0815 34.5449 72.4895 35.1804H72.5025ZM81.7743 38.6149V32.647H83.7592V38.7716C83.7592 39.4245 83.9334 39.9382 84.2816 40.3125C84.6298 40.6782 85.113 40.861 85.7311 40.861C86.3405 40.861 86.8194 40.6782 87.1676 40.3125C87.5158 39.9469 87.6899 39.4333 87.6899 38.7716V32.647H89.6749V38.6149C89.6749 39.9034 89.3223 40.9089 88.6171 41.6315C87.9119 42.3628 86.9456 42.7241 85.7181 42.7154C84.4992 42.7154 83.5372 42.3541 82.8321 41.6315C82.1269 40.9002 81.7743 39.8947 81.7743 38.6149ZM92.2605 42.4411V32.647H97.9411V34.3447H94.2324V36.6038H97.3796V38.3015H94.2324V40.7435H97.9411V42.4411H92.2605ZM13.0588 56.61V46.8158H18.7394V48.5135H15.0437V50.7727H18.1909V52.4703H15.0437V56.61H13.0588ZM20.6198 56.61V46.8158H23.5972C24.6681 46.8158 25.5169 47.077 26.1437 47.5994C26.7618 48.1217 27.0709 48.8356 27.0709 49.741C27.0709 50.3243 26.936 50.8336 26.6661 51.2689C26.3962 51.7042 26.0131 52.0394 25.5169 52.2744L28.5727 56.61H26.209L23.6103 52.6531H22.6048V56.61H20.6198ZM22.6048 50.9685H23.7148C24.1327 50.9685 24.4591 50.8597 24.6942 50.6421C24.9292 50.4244 25.0424 50.1154 25.0337 49.7149C25.0337 49.3405 24.9205 49.0445 24.6942 48.8269C24.4678 48.6093 24.1414 48.5048 23.7148 48.5135H22.6048V50.9685ZM29.1342 56.61L32.8298 46.8158H35.4155L39.1111 56.61H37.0087L36.0684 54.0635H32.1638L31.2367 56.61H29.1342ZM32.7776 52.3658H35.4677L34.1227 48.6963L32.7776 52.3658ZM40.7565 56.61V46.8158H43.29L47.6516 53.8284V46.8158H49.6235V56.61H47.0901L42.7284 49.5713V56.61H40.7565ZM51.6737 51.7129C51.6737 51.0164 51.7999 50.3548 52.0524 49.728C52.3049 49.0924 52.6531 48.5396 53.0971 48.0695C53.5498 47.5994 54.0983 47.2294 54.7425 46.9595C55.3955 46.6809 56.1007 46.5416 56.8581 46.5416C57.72 46.5416 58.5035 46.7157 59.2087 47.064C59.9225 47.4209 60.5058 47.9084 60.9585 48.5266L59.4045 49.741C59.1172 49.3318 58.756 49.0054 58.3207 48.7616C57.8854 48.5178 57.3978 48.396 56.8581 48.396C55.944 48.396 55.1909 48.7137 54.5989 49.3493C54.0069 49.9848 53.7065 50.7727 53.6978 51.7129C53.6978 52.6531 53.9982 53.4454 54.5989 54.0896C55.1909 54.7251 55.944 55.0385 56.8581 55.0298C57.3978 55.0298 57.8854 54.9123 58.3207 54.6773C58.756 54.4335 59.1172 54.1027 59.4045 53.6848L60.9585 54.8862C60.5755 55.4173 60.0967 55.8526 59.5221 56.1921C58.9475 56.5316 58.312 56.7449 57.6155 56.832L56.401 58.8691H54.6511L55.8787 56.8058C55.0516 56.6578 54.3159 56.3401 53.6717 55.8526C53.0275 55.365 52.5312 54.76 52.183 54.0374C51.8348 53.3148 51.665 52.54 51.6737 51.7129ZM61.5331 56.61L65.2288 46.8158H67.8144L71.5101 56.61H69.4076L68.4804 54.0635H64.5758L63.6356 56.61H61.5331ZM65.1896 52.3658H67.8667L66.5216 48.6963L65.1896 52.3658ZM73.1555 56.61V46.8158H75.1404V56.61H73.1555ZM77.1254 55.2518L78.5618 53.9329C78.8578 54.316 79.1887 54.612 79.5543 54.8209C79.9287 55.0298 80.3161 55.1343 80.7165 55.1343C81.1083 55.1343 81.413 55.0342 81.6307 54.834C81.857 54.6337 81.9702 54.3551 81.9702 53.9982C81.9702 53.7893 81.9092 53.5977 81.7874 53.4236C81.6568 53.2495 81.487 53.1058 81.2781 52.9927C81.0691 52.8708 80.8297 52.7489 80.5598 52.627C80.2899 52.4964 80.0157 52.3702 79.7371 52.2483C79.4585 52.1264 79.1887 51.9784 78.9275 51.8043C78.6576 51.6302 78.4182 51.4387 78.2092 51.2297C78.0003 51.0208 77.8305 50.7553 77.7 50.4331C77.5694 50.111 77.5041 49.7584 77.5041 49.3754C77.5041 48.5831 77.8001 47.9128 78.3921 47.3643C78.9841 46.8158 79.7328 46.5416 80.6382 46.5416C81.9963 46.5416 83.1324 47.0901 84.0465 48.187L82.597 49.4929C81.9702 48.6745 81.3216 48.2654 80.6512 48.2654C80.3204 48.2654 80.0462 48.3655 79.8285 48.5657C79.6109 48.766 79.5064 49.0097 79.5151 49.297C79.5151 49.4798 79.5674 49.6496 79.6718 49.8063C79.7763 49.9543 79.9112 50.0893 80.0767 50.2111C80.2508 50.3243 80.451 50.4375 80.6774 50.5507L81.3695 50.8771C81.6219 50.9903 81.8701 51.1035 82.1138 51.2167C82.3663 51.3386 82.6014 51.4865 82.819 51.6607C83.0454 51.8261 83.2456 52.0176 83.4197 52.2353C83.5938 52.4442 83.7288 52.6923 83.8245 52.9796C83.929 53.2756 83.9812 53.6021 83.9812 53.959C83.9638 54.847 83.6461 55.5565 83.0279 56.0876C82.4185 56.6187 81.6568 56.8842 80.7427 56.8842C79.9417 56.8842 79.2496 56.7493 78.6663 56.4794C78.083 56.2008 77.5694 55.7916 77.1254 55.2518ZM86.1882 56.61V46.8158H91.8688V48.5135H88.1731V50.7727H91.3203V52.4703H88.1731V54.9123H91.8688V56.61H86.1882Z" fill="black"/>
<path d="M45.4969 83.4589C45.7842 83.4589 46.0323 83.6809 45.9017 84.1902L44.5828 84.5428C44.7917 83.916 45.1835 83.4589 45.4969 83.4589ZM46.2282 85.6006H45.967C45.6405 85.9923 45.2749 86.3057 44.9223 86.3057C44.5567 86.3057 44.3738 86.0837 44.3738 85.6006C44.3738 85.4047 44.4 85.1957 44.4391 85.0129L46.5808 84.3077C46.9987 83.3153 46.4894 82.8843 45.9017 82.8843C44.8831 82.8843 43.734 84.6603 43.734 86.0576C43.734 86.7236 44.0474 87.0893 44.5436 87.0893C45.1313 87.0893 45.732 86.5277 46.2282 85.6006ZM45.8887 82.4142L47.1031 81.3042V81.1475H46.2935L45.5753 82.4273H45.8887V82.4142ZM41.3311 83.485H42.0363L40.9133 86.5669C40.8088 86.8281 40.9524 87.0893 41.2267 87.0893C42.0233 87.0893 42.9765 86.4102 43.3422 85.4439H43.1463C42.859 85.8487 42.2322 86.2927 41.7621 86.3841L42.7937 83.485H43.8515L43.9821 83.041H42.9504L43.3422 81.931H42.9374L42.2061 83.041L41.3311 83.1586V83.485ZM40.5998 83.3283C40.6913 83.041 40.4954 82.8843 40.3517 82.8843C39.738 82.8843 38.9936 83.4459 38.7063 84.2163H38.9022C39.0981 83.929 39.4376 83.6156 39.7641 83.5634L38.5757 86.6453C38.4713 86.9326 38.6802 87.0893 38.8369 87.0893C39.4245 87.0893 40.1167 86.5277 40.404 85.7573H40.2081C40.0122 86.0446 39.6727 86.358 39.3462 86.4102L40.5998 83.3283ZM40.7174 82.1008C40.9785 82.1008 41.2005 81.8788 41.2005 81.6176C41.2005 81.3565 40.9785 81.1345 40.7174 81.1345C40.5868 81.1345 40.4693 81.1867 40.3778 81.2781C40.2864 81.3695 40.2342 81.487 40.2342 81.6176C40.2342 81.8919 40.4431 82.1008 40.7174 82.1008ZM34.9845 83.7462C35.1674 83.7462 35.2718 84.0335 34.9845 84.6734L34.1488 86.5277C33.9921 86.8803 34.1618 87.1023 34.5014 87.1023C34.7103 87.1023 34.8017 87.0501 34.8931 86.8281L35.7158 84.6603C36.0945 84.1902 36.7997 83.694 37.1131 83.694C37.3351 83.694 37.309 83.8768 37.1654 84.1641L35.8987 86.58C35.7811 86.815 35.9378 87.1023 36.2121 87.1023C36.8258 87.1023 37.5702 86.5408 37.8575 85.7703H37.6355C37.4396 86.0576 37.1001 86.371 36.7736 86.4233L37.8575 84.2294C38.0011 83.9552 38.0664 83.694 38.0664 83.485C38.0664 83.1325 37.8705 82.8974 37.4918 82.8974C36.9564 82.8974 36.4994 83.4981 35.8464 84.2425V83.6679C35.8464 83.263 35.7158 82.8974 35.3502 82.8974C34.9193 82.8974 34.5275 83.5765 34.2141 84.2294H34.41C34.632 83.916 34.8278 83.7462 34.9845 83.7462ZM34.1357 83.8246C34.2794 83.3153 34.201 82.8843 33.8223 82.8843C33.3391 82.8843 33.1824 83.2108 32.7123 84.2294V83.6548C32.7123 83.25 32.5817 82.8843 32.2161 82.8843C31.7851 82.8843 31.3934 83.5634 31.08 84.2163H31.2758C31.4848 83.916 31.6807 83.7332 31.8374 83.7332C32.0202 83.7332 32.1247 84.0205 31.8374 84.6603L31.0016 86.5147C30.8449 86.8673 31.0147 87.0893 31.3542 87.0893C31.5631 87.0893 31.6545 87.037 31.746 86.815L32.5425 84.6473C32.7776 84.36 32.9865 84.1119 33.2477 83.8376H34.1357V83.8246ZM29.5782 83.4589C29.8655 83.4589 30.1136 83.6809 29.983 84.1902L28.6641 84.5428C28.8861 83.916 29.2648 83.4589 29.5782 83.4589ZM30.3095 85.6006H30.0483C29.7218 85.9923 29.3562 86.3057 29.0036 86.3057C28.638 86.3057 28.4551 86.0837 28.4551 85.6006C28.4551 85.4047 28.4812 85.1957 28.5204 85.0129L30.6621 84.3077C31.08 83.3153 30.5837 82.8843 29.983 82.8843C28.9644 82.8843 27.8152 84.6603 27.8152 86.0576C27.8152 86.7236 28.1287 87.0893 28.6249 87.0893C29.2125 87.0893 29.8132 86.5277 30.3095 85.6006ZM25.4124 83.485H26.1176L24.9945 86.5669C24.8901 86.8281 25.0337 87.0893 25.308 87.0893C26.1045 87.0893 27.0709 86.4102 27.4235 85.4439H27.2276C26.9403 85.8487 26.3135 86.2927 25.8434 86.3841L26.875 83.485H27.9328L28.0634 83.041H27.0317L27.4235 81.931H27.0187L26.2874 83.041L25.4124 83.1586V83.485ZM21.6645 85.8879C21.6645 84.9346 22.7223 83.6418 23.323 83.6418C23.4536 83.6418 23.5842 83.6548 23.6887 83.694L23.0749 85.3394C22.7223 85.7703 22.1738 86.2927 21.9127 86.2927C21.756 86.2927 21.6645 86.1752 21.6645 85.8879ZM24.9162 82.7015L24.5897 82.6754L24.2241 83.041H24.1588C22.6048 83.041 20.9332 84.9737 20.9332 86.5016C20.9332 86.8542 21.1291 87.0893 21.5078 87.0893C21.9649 87.0893 22.4089 86.4363 22.9182 85.7442L22.8921 85.9923C22.8268 86.6975 23.0488 87.0893 23.4144 87.0893C23.8454 87.0893 24.2371 86.4102 24.5375 85.7573H24.3416C24.1327 86.0576 23.9368 86.2405 23.7801 86.2405C23.6234 86.2405 23.5058 85.9401 23.7801 85.3133L24.9162 82.7015ZM21.5862 83.8246C21.7298 83.3153 21.6515 82.8843 21.2728 82.8843C20.7896 82.8843 20.6329 83.2108 20.1628 84.2294V83.6548C20.1628 83.25 20.0322 82.8843 19.6535 82.8843C19.2225 82.8843 18.8308 83.5634 18.5304 84.2163H18.7263C18.9352 83.916 19.1311 83.7332 19.2878 83.7332C19.4707 83.7332 19.5751 84.0205 19.2878 84.6603L18.439 86.5277C18.2823 86.8803 18.4521 87.1023 18.7916 87.1023C19.0005 87.1023 19.092 87.0501 19.1834 86.8281L20.0061 84.6473C20.2411 84.36 20.4501 84.1119 20.7112 83.8376H21.5862V83.8246ZM16.1145 86.9456L16.1929 86.7106C15.1612 86.5147 15.0307 86.5147 15.4485 85.3916L15.8403 84.3339H16.663C17.1723 84.3339 17.1854 84.5559 17.107 85.1174H17.4074L18.0864 83.25H17.7861C17.5249 83.694 17.329 84.0335 16.7675 84.0335H15.9448L16.5063 82.5056C16.7022 81.9572 16.7936 81.8527 17.4988 81.8527H17.6816C18.3998 81.8527 18.4912 82.0486 18.4912 82.806H18.7785L19.0136 81.5393H15.0307L14.9523 81.7743C15.775 81.9441 15.8534 82.0225 15.4747 83.0933L14.6258 85.4047C14.2341 86.4625 14.0774 86.5539 13.1241 86.7236L13.0588 86.9587H16.1145V86.9456ZM35.8725 74.4614C36.1598 74.4614 36.408 74.6834 36.2774 75.1927L34.9584 75.5453C35.1674 74.9185 35.5591 74.4614 35.8725 74.4614ZM36.6038 76.603H36.3427C36.0162 76.9948 35.6505 77.3082 35.298 77.3082C34.9323 77.3082 34.7495 77.0862 34.7495 76.603C34.7495 76.4072 34.7756 76.1982 34.8148 76.0154L36.9564 75.3102C37.3743 74.3178 36.865 73.8868 36.2774 73.8868C35.2588 73.8868 34.1096 75.6628 34.1096 77.0601C34.1096 77.7261 34.423 78.0918 34.9193 78.0918C35.5069 78.1048 36.1076 77.5302 36.6038 76.603ZM36.2643 73.4167L37.4788 72.3067V72.15H36.6691L35.9509 73.4298H36.2643V73.4167ZM31.7068 74.4875H32.412L31.2889 77.5694C31.1844 77.8306 31.3281 78.0918 31.6023 78.0918C32.3989 78.0918 33.3522 77.4127 33.7178 76.4463H33.522C33.2347 76.8512 32.6078 77.2952 32.1377 77.3866L33.1694 74.4875H34.2271L34.3577 74.0435H33.3261L33.7178 72.9335H33.313L32.5817 74.0435L31.7068 74.1741V74.4875ZM30.9755 74.3439C31.0669 74.0566 30.871 73.8999 30.7143 73.8999C30.1005 73.8999 29.3562 74.4614 29.0689 75.2319H29.2648C29.4607 74.9446 29.8002 74.6312 30.1267 74.5789L28.9383 77.6608C28.8338 77.9481 29.0428 78.1048 29.1995 78.1048C29.7871 78.1048 30.4792 77.5433 30.7665 76.7728H30.5707C30.3748 77.0601 30.0352 77.3735 29.7088 77.4258L30.9755 74.3439ZM31.093 73.1163C31.3542 73.1163 31.5762 72.8943 31.5762 72.6332C31.5762 72.372 31.3542 72.15 31.093 72.15C30.9233 72.15 30.7665 72.2414 30.6751 72.385C30.5837 72.5287 30.5837 72.7246 30.6751 72.8813C30.7665 73.0249 30.9233 73.1294 31.093 73.1163ZM27.306 77.4258L29.2648 72.2283L29.1995 72.1369L27.8414 72.2936V72.4503L28.1025 72.6462C28.3376 72.829 28.2592 72.9988 28.0503 73.5865L26.5616 77.5563C26.431 77.7914 26.6008 78.0787 26.875 78.0787C27.4888 78.0787 28.1548 77.5172 28.4421 76.7467H28.2462C28.0372 77.047 27.6194 77.3605 27.306 77.4258ZM23.31 76.8903C23.31 75.937 24.3677 74.6442 24.9684 74.6442C25.099 74.6442 25.2165 74.6573 25.3341 74.6965L24.7072 76.3419C24.3547 76.7728 23.8062 77.2952 23.545 77.2952C23.4014 77.3082 23.31 77.1776 23.31 76.8903ZM26.5616 73.717L26.2351 73.6909L25.8695 74.0566H25.8042C24.2502 74.0566 22.5787 75.9893 22.5787 77.5172C22.5787 77.8698 22.7745 78.1048 23.1532 78.1048C23.6103 78.1048 24.0543 77.4519 24.5636 76.7598L24.5375 77.0079C24.4722 77.713 24.6942 78.1048 25.0598 78.1048C25.4908 78.1048 25.8825 77.4258 26.1829 76.7728H25.987C25.7781 77.0732 25.5822 77.256 25.4255 77.256C25.2688 77.256 25.1512 76.9556 25.4255 76.3419L26.5616 73.717ZM19.0005 78.8492C19.0005 78.4443 19.3923 78.1832 19.9538 77.9612C20.1367 78.0526 20.424 78.157 20.7896 78.2746C21.3772 78.4705 21.5992 78.5488 21.5992 78.7186C21.5992 79.0973 21.0638 79.3846 20.0844 79.3846C19.3531 79.3976 19.0005 79.2409 19.0005 78.8492ZM20.6068 76.3549C20.3456 76.3549 20.2542 76.1329 20.2542 75.8848C20.2542 75.1143 20.6198 74.1872 21.2075 74.1872C21.4687 74.1872 21.5601 74.4092 21.5601 74.6573C21.5601 75.4147 21.1814 76.3549 20.6068 76.3549ZM22.2783 78.4705C22.2783 77.9742 21.8343 77.7914 21.1161 77.5825C20.5023 77.3996 20.215 77.3474 20.215 77.1385C20.215 76.9818 20.3456 76.7859 20.6068 76.6422C21.6254 76.59 22.2652 75.6759 22.2652 74.8662C22.2652 74.7226 22.2391 74.592 22.2 74.4745H22.8921L23.0227 74.0305H21.8474C21.6907 73.926 21.4948 73.8738 21.2728 73.8738C20.202 73.8738 19.5098 74.814 19.5098 75.6498C19.5098 76.1852 19.8232 76.5508 20.3195 76.6161C19.8232 76.8512 19.536 77.0993 19.536 77.4127C19.536 77.5955 19.6012 77.7261 19.758 77.8436C18.6088 78.1832 18.1387 78.6141 18.1387 79.1103C18.1387 79.6458 18.8438 79.8678 19.6796 79.8678C21.09 79.8808 22.2783 79.1103 22.2783 78.4705ZM16.9503 75.3363C17.4596 75.3363 17.4727 75.5583 17.3943 76.1199H17.6947L18.3737 74.2525H18.0734C17.8122 74.6965 17.6163 75.036 17.0548 75.036H15.9187L16.4802 73.5081C16.6761 72.9596 16.7805 72.8552 17.4727 72.8552H17.9689C18.6871 72.8552 18.7785 73.051 18.7785 73.8085H19.0658L19.3009 72.5418H15.0307L14.9523 72.7768C15.775 72.9466 15.8534 73.0249 15.4747 74.0958L14.6258 76.4072C14.2341 77.4649 14.0774 77.5563 13.1241 77.7261L13.0588 77.9612H17.8122L18.661 76.6161H18.3345C17.7861 77.1646 17.2245 77.6478 16.1668 77.6478C14.9001 77.6478 15.0176 77.5825 15.4355 76.4072L15.8272 75.3494H16.9503V75.3363ZM17.5641 72.15L18.7785 71.262V71.1053H17.9689L17.2507 72.15H17.5641ZM35.7158 65.4769C36.0031 65.4769 36.2513 65.6989 36.1207 66.2082L34.8017 66.5608C35.0107 65.9209 35.4024 65.4769 35.7158 65.4769ZM36.4471 67.6186H36.186C35.8595 68.0103 35.4938 68.3238 35.1413 68.3238C34.7756 68.3238 34.5928 68.1018 34.5928 67.6186C34.5928 67.4227 34.6189 67.2138 34.6581 67.0309L36.7997 66.3258C37.2176 65.3333 36.7083 64.9023 36.1207 64.9023C35.1021 64.9023 33.9529 66.6783 33.9529 68.0756C33.9529 68.7416 34.2663 69.1073 34.7625 69.1073C35.3502 69.1073 35.9509 68.5458 36.4471 67.6186ZM36.1076 64.4322L37.3221 63.3222V63.1655H36.5124L35.7942 64.4453H36.1076V64.4322ZM31.5501 65.49H32.2683L31.1453 68.5719C31.0408 68.833 31.1844 69.0942 31.4587 69.0942C32.2553 69.0942 33.2216 68.4152 33.5742 67.4488H33.3783C33.091 67.8536 32.4642 68.2976 31.9941 68.389L33.0257 65.49H34.0835L34.2141 65.046H33.1824L33.5742 63.936H33.1694L32.4381 65.046L31.5631 65.1635V65.49H31.5501ZM31.1844 65.8426C31.3281 65.3333 31.2497 64.9023 30.871 64.9023C30.3878 64.9023 30.2311 65.2288 29.761 66.2474V65.6728C29.761 65.268 29.6304 64.9023 29.2648 64.9023C28.8338 64.9023 28.4421 65.5814 28.1287 66.2343H28.3245C28.5335 65.934 28.7294 65.7512 28.8861 65.7512C29.0689 65.7512 29.1734 66.0385 28.8861 66.6783L28.0503 68.5327C27.8936 68.8853 28.0634 69.1073 28.4029 69.1073C28.6118 69.1073 28.7032 69.055 28.7947 68.833L29.6174 66.6653C29.8524 66.378 30.0614 66.1299 30.3225 65.8556H31.1844V65.8426ZM26.6269 65.4769C26.9142 65.4769 27.1623 65.6989 27.0317 66.2082L25.7128 66.5608C25.9217 65.9209 26.3135 65.4769 26.6269 65.4769ZM27.3582 67.6186H27.097C26.7705 68.0103 26.4049 68.3238 26.0523 68.3238C25.6867 68.3238 25.5038 68.1018 25.5038 67.6186C25.5038 67.4227 25.53 67.2138 25.5691 67.0309L27.7108 66.3258C28.1287 65.3333 27.6324 64.9023 27.0317 64.9023C26.0131 64.9023 24.864 66.6783 24.864 68.0756C24.864 68.7416 25.1774 69.1073 25.6736 69.1073C26.2612 69.1073 26.862 68.5458 27.3582 67.6186ZM22.3697 68.4805C22.1608 68.4805 21.8604 68.2846 21.8604 68.1148C21.8604 68.0626 21.9518 67.8145 22.0694 67.5141L22.4089 66.6C22.7745 66.156 23.3491 65.6728 23.6756 65.6728C23.8715 65.6728 24.0151 65.8034 24.0151 66.0776C24.0021 66.9395 23.2185 68.4805 22.3697 68.4805ZM24.7464 65.7512C24.7464 65.1243 24.5897 64.8893 24.1457 64.8893C23.5972 64.8893 23.088 65.4769 22.5656 66.1821L23.6625 63.2308L23.5972 63.1394L22.2391 63.2961V63.4528L22.5003 63.6487C22.7354 63.8315 22.657 64.0143 22.4481 64.5889L21.2597 67.71C21.1552 67.9712 21.0377 68.2846 21.0377 68.3629C21.0377 68.7286 21.534 69.0812 21.991 69.0812C23.0227 69.1073 24.7464 67.2138 24.7464 65.7512ZM20.7374 65.3463C20.8157 65.0591 20.6329 64.9023 20.4762 64.9023C19.8624 64.9023 19.1181 65.4639 18.8308 66.2343H19.0267C19.2225 65.9471 19.5621 65.6336 19.8885 65.5814L18.7002 68.6633C18.5957 68.9506 18.8047 69.1073 18.9614 69.1073C19.549 69.1073 20.2411 68.5458 20.5284 67.7753H20.3325C20.1367 68.0626 19.7971 68.376 19.4707 68.4282L20.7374 65.3463ZM20.868 64.1188C21.1291 64.1188 21.3511 63.8968 21.3511 63.6356C21.3511 63.3745 21.1291 63.1525 20.868 63.1525C20.6982 63.1525 20.5415 63.2439 20.4501 63.3875C20.3587 63.5312 20.3587 63.7271 20.4501 63.8838C20.5415 64.0274 20.6982 64.1319 20.868 64.1188ZM17.8514 63.5312H15.0307L14.9523 63.7662C15.775 63.936 15.8534 64.0143 15.4747 65.0852L14.6258 67.3966C14.2341 68.4543 14.0774 68.5458 13.1241 68.7155L13.0588 68.9506H17.3421L18.2692 67.2921H17.9428C17.4074 67.8798 16.7936 68.6241 15.8403 68.6241C15.1221 68.6241 15.0176 68.4935 15.4224 67.3835L16.2712 65.0721C16.663 64.0143 16.8197 63.9229 17.773 63.7532L17.8514 63.5312Z" fill="black"/>
</g>
<defs>
<clipPath id="clip0">
<rect width="111" height="100.161" fill="white"/>
</clipPath>
</defs>
</svg>
